<?xml version="1.0" encoding="iso-8859-1"?>
<!-- Uploaded to: SVG Repo, www.svgrepo.com, Generator: SVG Repo Mixer Tools -->
<!DOCTYPE svg PUBLIC "-//W3C//DTD SVG 1.1//EN" "http://www.w3.org/Graphics/SVG/1.1/DTD/svg11.dtd">
<svg height="800px" width="800px" version="1.1" id="Capa_1" xmlns="http://www.w3.org/2000/svg" xmlns:xlink="http://www.w3.org/1999/xlink" 
	 viewBox="0 0 297.5 297.5" xml:space="preserve">
<g>
	<g id="XMLID_22_">
		<g>
			<path style="fill:#046B90;" d="M148.75,20.66c70.63,0,128.09,57.46,128.09,128.09s-57.46,128.09-128.09,128.09
				c-70.62,0-128.08-57.46-128.08-128.09S78.13,20.66,148.75,20.66z M236.75,148.75c0-48.52-39.48-88-88-88
				c-48.521,0-87.99,39.48-87.99,88s39.47,88,87.99,88C197.27,236.75,236.75,197.27,236.75,148.75z"/>
			<path style="fill:#80AAB8;" d="M148.75,81.17c37.27,0,67.59,30.311,67.59,67.58s-30.32,67.58-67.59,67.58
				c-37.26,0-67.58-30.311-67.58-67.58S111.49,81.17,148.75,81.17z"/>
			<path d="M148.75,0.25c81.89,0,148.5,66.62,148.5,148.5s-66.61,148.5-148.5,148.5c-81.88,0-148.5-66.62-148.5-148.5
				S66.87,0.25,148.75,0.25z M276.84,148.75c0-70.63-57.46-128.09-128.09-128.09c-70.62,0-128.08,57.46-128.08,128.09
				s57.46,128.09,128.08,128.09C219.38,276.84,276.84,219.38,276.84,148.75z"/>
			<path d="M148.75,60.75c48.52,0,88,39.48,88,88s-39.48,88-88,88c-48.521,0-87.99-39.48-87.99-88S100.229,60.75,148.75,60.75z
				 M216.34,148.75c0-37.27-30.32-67.58-67.59-67.58c-37.26,0-67.58,30.311-67.58,67.58s30.32,67.58,67.58,67.58
				C186.02,216.33,216.34,186.02,216.34,148.75z"/>
		</g>
		<g>
		</g>
	</g>
</g>
</svg>